# xmcd
#
# Track frame offsets: 
#        150
#        6540
#        22433
#        37811
#        59685
#        82979
#        93227
#        106839
#        125727
#        157616
#
# Disc length: 2311 seconds
#
# Revision: 0
# Processed by: cddbd v1.5.2PL0 Copyright (c) Steve Scherf et al.
# Submitted via: ExactAudioCopy v0.99pb3
#
DISCID=7809050a
DTITLE=Photon Band - It's A Lonely Planet
DYEAR=2002
DGENRE=Darla
TTITLE0=Re-Entry Burn
TTITLE1=It's A Lonely Planet
TTITLE2=OuterSpace
TTITLE3=Out Of Synch, Out Of Season, Out Of Rhyme, Out Of Reason
TTITLE4=Indirection (School)
TTITLE5=Paper Plane
TTITLE6=Dreamin II
TTITLE7=If It's A Beautiful Day
TTITLE8=Closer
TTITLE9=We Don't Care Anymore
EXTD=
EXTT0=
EXTT1=
EXTT2=
EXTT3=
EXTT4=
EXTT5=
EXTT6=
EXTT7=
EXTT8=
EXTT9=
PLAYORDER=
